<svg id="Layer_1" data-name="Layer 1" xmlns="http://www.w3.org/2000/svg" viewBox="0 0 153 135"><title>Diamond Shapes</title><path d="M33.358,66.662c.532-3.115,1.288-6.64,1.712-10.206C36.063,48.1,39.2,40.374,41.9,32.528c1.345-3.9,3.971-7.109,6.556-10.264A42.008,42.008,0,0,1,68.373,8.636a24.508,24.508,0,0,1,15.293-.069c11.059,3.431,18.936,10.66,24.89,20.3a32.346,32.346,0,0,1,2.519,5.417c3.922,10.13,6.155,20.661,7.711,31.367a9.557,9.557,0,0,1-.027,3.085c-.894,5.119-1.729,10.248-2.623,15.367a21.891,21.891,0,0,1-.8,3.01c-1.117,3.421-2.389,6.8-3.385,10.25-2.492,8.636-7.789,15.327-14.494,21A38.348,38.348,0,0,1,78.2,126.928c-3.363.525-6.525-.3-9.66-1.258-10.7-3.27-18.461-10.229-24.363-19.505a26.125,26.125,0,0,1-3.153-6.7C40.488,97.62,39.907,95.783,39.2,94c-3.266-8.183-4.133-16.9-5.69-25.456C33.422,68.078,33.428,67.592,33.358,66.662Zm64.978.606a17.252,17.252,0,0,0-.215-1.721c-1.385-6.08-2.8-12.154-4.173-18.237a5.7,5.7,0,0,0-1.655-2.852Q84.89,37.1,77.5,29.727c-1.384-1.372-1.436-1.363-2.857.048-4.882,4.845-9.73,9.724-14.633,14.548a6.4,6.4,0,0,0-1.754,3.322q-2.032,9.008-4.114,18a6.074,6.074,0,0,0-.019,2.835c1.394,6,2.775,12,4.105,18.006a7.486,7.486,0,0,0,2.175,3.885c4.688,4.586,9.314,9.235,13.97,13.853,1.7,1.684,1.711,1.679,3.381.056,4.817-4.681,9.406-9.6,14.37-14.127A5.661,5.661,0,0,0,93.9,87.111c1.349-6.007,2.749-12,4.121-18C98.163,68.487,98.238,67.851,98.336,67.268ZM61.888,108.329c.405-.731.061-1.248-.065-1.767-.845-3.488-1.66-6.985-2.583-10.453-2.168-8.144-.412-5.574-6.735-11.254-.356-.32-.688-.666-1.048-.982-1.313-1.152-1.482-1.137-2.044.515q-2.583,7.589-5.094,15.2c-.753,2.273-.692,2.38,1.68,3.238q6.3,2.282,12.616,4.519A9.361,9.361,0,0,0,61.888,108.329ZM90.375,27.337c.1.406.23.948.363,1.49.949,3.876,2.057,7.721,2.8,11.636.6,3.15,1.847,5.7,4.555,7.513a23.434,23.434,0,0,1,2.469,2.262c1.55,1.4,1.726,1.389,2.361-.486q2.61-7.711,5.143-15.448c.632-1.926.6-1.948-1.442-2.688q-6.978-2.53-13.963-5.041c-.375-.135-.748-.284-1.133-.385C90.666,25.962,90.346,26.386,90.375,27.337ZM50.446,51.311c1.743-1.561,3.553-3.217,5.4-4.825a6.955,6.955,0,0,0,2.293-3.814c1.117-4.743,2.342-9.46,3.522-14.188.116-.465.228-.933.305-1.405.155-.941-.334-1.133-1.127-.916-.308.084-.609.195-.909.3-4.735,1.706-9.478,3.389-14.2,5.131-2.118.781-2.139.869-1.454,2.95q2.473,7.513,5,15.007C49.477,50.133,49.511,50.837,50.446,51.311ZM90.406,106.8c-.085,1.211.293,1.567,1.43,1.2,1.9-.6,3.76-1.327,5.636-2,3.227-1.16,6.446-2.346,9.686-3.471,1.141-.4,1.494-1.021,1.066-2.167-.5-1.344-.922-2.719-1.376-4.081-1.313-3.934-2.6-7.879-3.954-11.8-.533-1.537-.956-1.623-2.19-.548-1.443,1.257-2.776,2.644-4.26,3.848a6.214,6.214,0,0,0-2.231,3.549c-1.111,4.654-2.282,9.293-3.43,13.938C90.647,105.813,90.514,106.355,90.406,106.8ZM52.235,67.133a2.195,2.195,0,0,0,0-.478c-.857-3.739-1.677-7.487-2.608-11.208-.3-1.193-1.013-.639-1.589-.122C44.044,58.9,40.066,62.49,36.061,66.048c-.854.759-.9,1.418-.04,2.177,1.437,1.272,2.85,2.57,4.282,3.848,2.564,2.29,5.114,4.6,7.713,6.848,1.062.92,1.373.811,1.728-.565.678-2.632,1.286-5.282,1.913-7.927A12.9,12.9,0,0,0,52.235,67.133Zm50.84-12.341a2,2,0,0,0-.356.551q-1.353,5.456-2.672,10.921a4.021,4.021,0,0,0,.04,1.9c.8,3.335,1.57,6.677,2.409,10,.423,1.677.726,1.77,2,.633q5.618-5.024,11.176-10.115c1.574-1.448,1.56-1.669-.1-3.194-3.588-3.286-7.21-6.534-10.833-9.781C104.274,55.3,103.859,54.753,103.074,54.793ZM59.656,42.142c2.7-1.582,13.728-12.543,14.532-14.447-3.054-.691-6.073-1.386-9.1-2.054-1.182-.261-1.52.533-1.746,1.469Q62.161,32,60.954,36.887C60.54,38.571,60.122,40.254,59.656,42.142ZM74.48,8.574a41.286,41.286,0,0,0-15.862,6.091c-.863.552-.876,1.214-.283,2,1.385,1.846,2.763,3.7,4.1,5.578.677.951,1.213.775,1.835-.039,2.269-2.973,4.578-5.916,6.83-8.9A30.363,30.363,0,0,0,74.48,8.574Zm-29.7,21.612c.075.041.154.122.205.107,5.444-1.572,10.661-3.792,16.02-5.605,1-.34.9-.952.38-1.658-1.13-1.545-2.243-3.1-3.383-4.641-1.612-2.174-1.716-2.186-3.8-.3a51.917,51.917,0,0,0-9,10.821C44.964,29.295,44.557,29.646,44.782,30.186ZM74.5,125.433c-1.376-1.808-2.52-3.32-3.674-4.825-2.041-2.663-4.062-5.342-6.144-7.973-1.165-1.472-1.546-1.447-2.7.067s-2.291,3.076-3.392,4.644c-1.032,1.471-1,1.666.507,2.61a40.92,40.92,0,0,0,11.15,4.893A9.89,9.89,0,0,0,74.5,125.433ZM78.424,8.9a.577.577,0,0,0-.018.76q4.863,6.367,9.745,12.72c.638.833,1.152.6,1.679-.131,1.259-1.746,2.558-3.464,3.806-5.218,1.171-1.647,1.183-1.714-.478-2.713A42.857,42.857,0,0,0,79.693,8.881C79.237,8.787,78.764,8.6,78.424,8.9ZM44.363,103.842a48.875,48.875,0,0,0,10.824,13.235c.854.751,1.539.6,2.189-.3,1.259-1.751,2.581-3.457,3.835-5.212.917-1.283.882-1.5-.567-2.045-3.515-1.317-7.052-2.576-10.594-3.82A34.946,34.946,0,0,0,44.363,103.842ZM59.828,92.176c.062,2.079.824,3.933,1.254,5.847.68,3.033,1.5,6.034,2.231,9.055.253,1.04.671,1.85,1.929,1.574,3.009-.662,6.01-1.36,9.076-2.057C73.5,105.074,61.681,93.37,59.828,92.176Zm18.5,33.117c.175.1.248.175.311.168,5.6-.638,10.5-3.056,15.219-5.942a.951.951,0,0,0,.279-1.589c-1.516-2.051-3.016-4.114-4.525-6.17-.462-.63-.948-.511-1.356.034-3.291,4.4-6.828,8.609-9.947,13.136C78.272,124.979,78.311,125.08,78.324,125.293Zm29.1-95.121c.033-.1.1-.195.075-.243-2.6-5.15-6.536-9.186-10.772-12.974-.642-.574-1.169-.263-1.6.326q-2.124,2.893-4.243,5.792c-.481.657-.375,1.191.362,1.551a13.242,13.242,0,0,0,1.324.552c4.352,1.571,8.7,3.147,13.065,4.685C106.2,30.06,106.771,30.5,107.429,30.171ZM92.089,92c-1.541,1.516-2.959,2.9-4.363,4.295-2.944,2.927-5.9,5.84-8.81,8.8-1.1,1.117-.991,1.458.531,1.836,2.245.557,4.509,1.04,6.774,1.517,2.112.445,2.286.349,2.815-1.729,1.1-4.331,2.167-8.671,3.24-13.01A1.756,1.756,0,0,0,92.089,92Zm15.656,12.034a4.8,4.8,0,0,0-2.237.495c-4.512,1.617-9.029,3.223-13.53,4.874-1.7.623-1.767.877-.726,2.374,1.095,1.574,2.23,3.121,3.389,4.648,1.216,1.6,1.364,1.652,2.755.319,1.9-1.823,3.816-3.654,5.533-5.646A30.417,30.417,0,0,0,107.745,104.031ZM92.574,42c-.391-1.652-.727-3.115-1.086-4.573-.8-3.259-1.6-6.52-2.433-9.773-.559-2.192-.611-2.229-2.734-1.791s-4.222.9-6.319,1.4c-2.166.519-2.242.748-.716,2.283q5.751,5.782,11.552,11.514A2.123,2.123,0,0,0,92.574,42ZM77.164,10.747c-.093.126-.258.245-.259.366-.028,4.639-.035,9.278-.062,13.917-.006,1.079.505,1.437,1.513,1.214,2.576-.571,5.161-1.1,7.724-1.726,1.524-.369,1.584-.6.605-1.89Q82.4,17,78.064,11.4C77.832,11.095,77.645,10.708,77.164,10.747Zm10.519,99.627a66,66,0,0,0-8.43-2.112c-2.017-.481-2.387-.158-2.4,1.984-.035,4.075-.012,8.15,0,12.224a1.034,1.034,0,0,0,.606,1.186ZM116.435,69.8c-2.038,1.807-4,3.533-5.946,5.276-1.779,1.592-3.573,3.17-5.3,4.817-1.013.965-.93,1.329.414,1.792,2.332.8,4.688,1.54,7.052,2.245,1.782.532,2.09.343,2.415-1.454.637-3.524,1.237-7.054,1.823-10.586A2.031,2.031,0,0,0,116.435,69.8Zm-80.8-.2-.618.258q1.2,6.8,2.4,13.6c.187,1.061.89.959,1.628.72,2.505-.813,5.019-1.6,7.5-2.479,1.3-.457,1.416-.911.4-1.844C43.21,76.4,39.409,73.009,35.631,69.594ZM48.349,53.147c-3.2-1.02-5.846-1.887-8.508-2.706-2.037-.627-2.311-.465-2.694,1.652-.669,3.7-1.3,7.4-1.921,11.1-.074.437-.282.94.362,1.445C39.775,61.041,43.91,57.341,48.349,53.147ZM116.425,64.46a2.037,2.037,0,0,0,.462-2.1c-.586-3.539-1.186-7.077-1.825-10.607-.324-1.791-.617-1.954-2.438-1.392q-3.315,1.021-6.6,2.15c-1.789.618-1.869.917-.523,2.169,2.219,2.063,4.491,4.069,6.748,6.091C113.609,61.985,114.98,63.183,116.425,64.46ZM74.792,123.537l.534-.2c0-4.546.041-9.093-.023-13.638-.021-1.478-.495-1.775-2.033-1.475-2.2.428-4.382.913-6.557,1.437-1.9.458-2.032.795-.855,2.358,2.307,3.066,4.662,6.1,7.007,9.134C73.489,121.961,74.149,122.743,74.792,123.537Zm-.13-112.512c-3.433,4.114-6.646,8.466-10.047,12.966a84.643,84.643,0,0,0,8.854,2.153c1.611.345,1.845.154,1.861-1.5.041-4.143.014-8.287,0-12.43A1.084,1.084,0,0,0,74.662,11.025Zm29.184,40.132.517.5c2.866-.944,5.735-1.879,8.6-2.838,1.261-.423,1.132-1.338.792-2.341-.9-2.649-1.745-5.313-2.656-7.957a19.844,19.844,0,0,0-1.638-4.188ZM42.9,35.048,42.335,35q-2.027,6.12-4.051,12.241c-.354,1.077.4,1.417,1.206,1.677q3.537,1.139,7.08,2.257c.443.139.945.443,1.366.106.572-.457.173-1.038.007-1.543-1.2-3.644-2.4-7.288-3.632-10.92A18.509,18.509,0,0,0,42.9,35.048Zm61.245,47.586c.173,2.571,4.5,15.394,5.685,16.9.51-1.526.988-2.954,1.464-4.382q1.25-3.747,2.5-7.494c.27-.807.446-1.7-.539-2.044C110.275,84.574,107.257,83.643,104.145,82.634ZM42.391,99.425A3.422,3.422,0,0,0,43.758,97.1c1.287-3.772,2.531-7.559,3.788-11.342.2-.605.426-1.2.587-1.82.221-.845-.1-1.282-.985-1-2.659.844-5.308,1.721-7.957,2.6a1.168,1.168,0,0,0-.859,1.662C39.665,91.2,40.989,95.2,42.391,99.425ZM53.415,71.282l-.59.059q-1.078,4.385-2.158,8.769a1.49,1.49,0,0,0,.344,1.551c1.835,1.693,3.692,3.361,5.541,5.039l.345-.237Zm45.871-.763c-1.579,4.538-3.569,13.945-3.342,15.782a47.422,47.422,0,0,0,5.063-4.415,2.052,2.052,0,0,0,.54-2C100.843,76.885,100.1,73.888,99.286,70.519Zm-.357-7.284.469.058c.711-3.007,1.43-6.012,2.126-9.023a1.81,1.81,0,0,0-.446-1.778,22,22,0,0,0-5.567-4.281ZM52.854,62.96l.552-.052c1.182-4.927,2.342-9.859,3.432-15.327a54.122,54.122,0,0,0-5.777,5.09,1.443,1.443,0,0,0-.372,1.535Q51.778,58.581,52.854,62.96Z"/></svg>