<svg xmlns="http://www.w3.org/2000/svg" viewBox="0 0 110 46" id="svg-solitaire">
        <path d="M68.0958716,34.7224272 C70.6511419,31.8744075 72.2855338,28.2098457 72.53675,24.1816447 L68.0958716,28.5533641 L68.0958716,34.7224272 Z M36.880027,24.1816447 C37.1308716,28.2098457 38.7648919,31.8744075 41.3205338,34.7224272 L41.3205338,28.5533641 L36.880027,24.1816447 Z M41.3205338,11.4663432 C38.7648919,14.314363 37.1308716,17.9785589 36.880027,22.0071258 L41.3205338,17.6354064 L41.3205338,11.4663432 Z M68.0958716,17.6354064 L72.53675,22.0071258 C72.2855338,17.9785589 70.6511419,14.314363 68.0958716,11.4663432 L68.0958716,17.6354064 Z M68.0958716,19.1872753 L68.0958716,27.0014951 L72.0647905,23.0943852 L68.0958716,19.1872753 Z M42.4353986,11.0127088 L42.4353986,16.5379036 L48.048,11.0127088 L42.4353986,11.0127088 Z M49.1628649,9.91520598 L53.6037432,5.54348656 C49.5114459,5.79079052 45.7889122,7.39936377 42.8958378,9.91520598 L49.1628649,9.91520598 Z M58.67675,9.91520598 L54.7082027,6.00846191 L50.7392838,9.91520598 L58.67675,9.91520598 Z M60.2535405,9.91520598 L66.5205676,9.91520598 C63.6274932,7.39936377 59.9049595,5.79079052 55.8122905,5.54348656 L60.2535405,9.91520598 Z M66.9810068,16.5379036 L66.9810068,11.0127088 L61.3684054,11.0127088 L66.9810068,16.5379036 Z M41.3205338,27.0014951 L41.3205338,19.1872753 L37.3519865,23.0943852 L41.3205338,27.0014951 Z M59.7912432,35.1760617 L66.9810068,28.0989979 L66.9810068,18.0897725 L59.7919865,11.0127088 L49.6244189,11.0127088 L42.4353986,18.0897725 L42.4353986,28.0989979 L49.6247905,35.1760617 L59.7912432,35.1760617 Z M66.9810068,35.1760617 L66.9810068,29.6508669 L61.3680338,35.1760617 L66.9810068,35.1760617 Z M60.2531689,36.2735645 L55.8122905,40.6449181 C59.9045878,40.39798 63.6271216,38.7890409 66.5198243,36.2735645 L60.2531689,36.2735645 Z M50.7396554,36.2735645 L54.7082027,40.1803086 L58.6763784,36.2735645 L50.7396554,36.2735645 Z M49.1632365,36.2735645 L42.8962095,36.2735645 C45.7896554,38.7890409 49.5114459,40.39798 53.6037432,40.6449181 L49.1632365,36.2735645 Z M42.4353986,29.6508669 L42.4353986,35.1760617 L48.0483716,35.1760617 L42.4353986,29.6508669 Z M54.7082027,4.40940035 C65.1741824,4.40940035 73.6891486,12.7913949 73.6891486,23.0943852 C73.6891486,33.3973755 65.1741824,41.7793701 54.7082027,41.7793701 C44.242223,41.7793701 35.7272568,33.3973755 35.7272568,23.0943852 C35.7272568,12.7913949 44.242223,4.40940035 54.7082027,4.40940035 Z M100.362365,29.1580881 C105.266655,29.1580881 109.256757,26.3956736 109.256757,23 C109.256757,19.6043264 105.266655,16.8419119 100.362365,16.8419119 L76.4760135,16.8419119 L76.3961149,16.5814379 C73.5468919,7.24900589 64.63875,0.731668522 54.7339189,0.731668522 C44.8287162,0.731668522 35.9209459,7.24900589 33.071723,16.5814379 L32.9918243,16.8419119 L9.63726351,16.8419119 C4.73297297,16.8419119 0.743243243,19.6043264 0.743243243,23 C0.743243243,26.3956736 4.73297297,29.1580881 9.63726351,29.1580881 L32.9918243,29.1580881 L33.071723,29.4185621 C35.9209459,38.7509941 44.8287162,45.2683315 54.7339189,45.2683315 C64.63875,45.2683315 73.5468919,38.7509941 76.3961149,29.4185621 L76.4760135,29.1580881 L100.362365,29.1580881 Z M100.362365,16.1102434 C105.676554,16.1102434 110,19.2008112 110,23 C110,26.7991888 105.676554,29.8897566 100.362365,29.8897566 L77.0267568,29.8897566 C73.9987838,39.3893749 64.8717568,46 54.7339189,46 C44.5960811,46 35.4690541,39.3893749 32.4407095,29.8897566 L9.63726351,29.8897566 C4.32307432,29.8897566 0,26.7991888 0,23 C0,19.2008112 4.32307432,16.1102434 9.63726351,16.1102434 L32.4407095,16.1102434 C35.4690541,6.6106251 44.5960811,0 54.7339189,0 C64.8717568,0 73.9987838,6.6106251 77.0267568,16.1102434 L100.362365,16.1102434 Z" id="Solitaire-Style"/>
      </svg>